# xmcd
#
# Track frame offsets:
#	150
#	13613
#	27133
#	45425
#	61196
#	73190
#	92296
#	107546
#	122252
#	142829
#	155439
#	172167
#	186274
#	206739
#
# Disc length: 3020 seconds
#
# Revision: 0
# Processed by: cddbd v1.5.1PL0 Copyright (c) Steve Scherf et al.
# Submitted via: EasyCDDAExtractor 8.0.2.1
#
DISCID=af0bca0e
DTITLE=Various Artist - Mr Music Country 08 2005
DYEAR=1900
DGENRE=Country
TTITLE0=Deryl Dodd - Stronger proof
TTITLE1=Shane Worley - Let's chase each other around the room
TTITLE2=Tanya Dennis - Samantha (Don't make me beg)
TTITLE3=Ricky Calmbach - Neon Friday night
TTITLE4=Karree J. Phillips - Dog on the dash
TTITLE5=Mike Siler - Man of clay
TTITLE6=Arly Karlsen and Pauline Reese - One less honky tonk
TTITLE7=Don Williams - Get away
TTITLE8=Lacy J. Dalton - The last wild place
TTITLE9=Red Simpson - The mighty Hag
TTITLE10=Wanda Jackson - Pretty miss Norma Jean
TTITLE11=Hermann Lammers Meyer - The good old days
TTITLE12=The Greencards - You pulled me out
TTITLE13=Billy O' Rourke - Live the life I love
EXTD=
EXTT0=
EXTT1=
EXTT2=
EXTT3=
EXTT4=
EXTT5=
EXTT6=
EXTT7=
EXTT8=
EXTT9=
EXTT10=
EXTT11=
EXTT12=
EXTT13=
PLAYORDER=
